<?xml version="1.0" encoding="utf-8"?>
<!-- Generator: Adobe Illustrator 28.1.0, SVG Export Plug-In . SVG Version: 6.00 Build 0)  -->
<svg version="1.1" id="Layer_2_00000137824772835062487340000016712053441970567611_"
	 xmlns="http://www.w3.org/2000/svg" xmlns:xlink="http://www.w3.org/1999/xlink" x="0px" y="0px" viewBox="0 0 725.7 725.7"
	 style="enable-background:new 0 0 725.7 725.7;" xml:space="preserve">
<style type="text/css">
	.st0{fill:#B524EA;}
</style>
<path d="M339,6.4L65.9,164c-14.7,8.5-23.8,24.2-23.8,41.3v315.2c0,17,9.1,32.8,23.8,41.3L339,719.3c14.7,8.5,32.9,8.5,47.6,0
	l273.1-157.6c14.7-8.5,23.8-24.2,23.8-41.3V205.3c0-17-9.1-32.8-23.8-41.3L386.6,6.4C371.9-2.1,353.7-2.1,339,6.4z"/>
<g>
	<path d="M363.2,625.2c-2.8,0-5.5-0.7-7.9-2.1L141.6,499.8c-4.9-2.8-7.9-8.1-7.9-13.8V239.5c0-5.7,3-10.9,7.9-13.8l213.6-123.3
		c2.4-1.4,5.2-2.1,7.9-2.1s5.5,0.7,7.9,2.1l213.6,123.3c4.9,2.8,7.9,8.1,7.9,13.8V486c0,5.7-3,10.9-7.9,13.8L371.1,623
		C368.7,624.4,365.9,625.2,363.2,625.2L363.2,625.2z"/>
	<path class="st0" d="M371.1,130L371.1,130L371.1,130 M363.2,134.6l197.7,114.1v228.1L363.2,590.9L165.5,476.8V248.7L363.2,134.6
		 M363.2,68.6c-8.2,0-16.4,2.1-23.8,6.4L125.8,198.3c-14.7,8.5-23.8,24.2-23.8,41.3V486c0,17,9.1,32.8,23.8,41.3l213.6,123.3
		c7.4,4.3,15.6,6.4,23.8,6.4c8.2,0,16.4-2.1,23.8-6.4l213.6-123.3c14.7-8.5,23.8-24.2,23.8-41.3V239.5c0-17-9.1-32.8-23.8-41.3
		L387,75C379.6,70.7,371.4,68.6,363.2,68.6L363.2,68.6L363.2,68.6z"/>
</g>
</svg>
