<?xml version="1.0" encoding="UTF-8"?><svg id="svg1" xmlns="http://www.w3.org/2000/svg" viewBox="0 0 24.07 18.3"><defs><style>.cls-1{fill:#fff;stroke-width:0px;}</style></defs><path id="path1" class="cls-1" d="M20.23,1.5c-1.6-.7-3.2-1.2-4.9-1.5h-.1c-.2.4-.4.9-.6,1.2-1.8-.3-3.7-.3-5.5,0-.1-.4-.3-.8-.6-1.2h-.1c-1.6.2-3.3.8-4.8,1.5h0C.53,6.1-.37,10.7.13,15.2v.1c2.1,1.5,4,2.4,6,3h.1c.5-.6.9-1.3,1.2-2v-.1h0c-.7-.2-1.3-.5-1.9-.9v-.1h0c.1-.1.3-.2.4-.3h.1c3.9,1.8,8.2,1.8,12.1,0h.1c.1.1.2.2.4.3v.1h0c-.6.3-1.2.6-1.9.9,0,0-.1.1,0,.1h0c.4.7.8,1.4,1.2,2h.1c2-.6,3.9-1.5,6-3v-.1c.3-5.2-1-9.7-3.8-13.7h0ZM7.93,12.4c-1.2,0-2.2-1.1-2.2-2.4s1-2.4,2.2-2.4,2.2,1.1,2.2,2.4-1,2.4-2.2,2.4ZM15.93,12.4c-1.2,0-2.2-1.1-2.2-2.4s1-2.4,2.2-2.4,2.2,1.1,2.2,2.4-1,2.4-2.2,2.4Z"/></svg>