<?xml version="1.0" encoding="UTF-8"?><svg id="a" xmlns="http://www.w3.org/2000/svg" viewBox="0 0 355.5 729.14"><defs><style>.v{fill:#12171e;}.v,.w,.x,.y,.z,.aa,.ab,.ac,.ad,.ae,.af{stroke-width:0px;}.x{fill:#9b9388;}.y{fill:#151515;}.z{fill:#0c0e11;}.aa{fill:#dad5c5;}.ab{fill:#fff;}.ac{fill:rgba(61,52,44,.3);}.ad{fill:rgba(66,90,114,.3);fill-rule:evenodd;}.ae{fill:#6c635b;}.af{fill:#0a0a0a;}</style></defs><g id="b"><g id="c"><path id="d" class="x" d="M354.71,235.19h-5.42c-.44,0-.79.35-.79.79v85.08c0,.44.35.79.79.79h5.42c.44,0,.79-.35.79-.79v-85.08c0-.44-.35-.79-.79-.79Z"/><path id="e" class="x" d="M6.2,198.22H.79c-.44,0-.79.35-.79.79v50.37c0,.44.35.79.79.79h5.42c.44,0,.79-.35.79-.79v-50.37c0-.44-.35-.79-.79-.79Z"/><path id="f" class="x" d="M6.2,141.73H.79c-.44,0-.79.35-.79.79v29.07c0,.44.35.79.79.79h5.42c.44,0,.79-.35.79-.79v-29.07c0-.44-.35-.79-.79-.79Z"/><path id="g" class="x" d="M6.2,269.23H.79c-.44,0-.79.35-.79.79v50.37c0,.44.35.79.79.79h5.42c.44,0,.79-.35.79-.79v-50.37c0-.44-.35-.79-.79-.79Z"/></g><rect id="h" class="ae" x="2.09" width="351.32" height="729.14" rx="59.06" ry="59.06"/><rect id="i" class="aa" x="4.02" y="2.3" width="347.45" height="724.54" rx="58.06" ry="58.06"/><path id="j" class="ac" d="M273.4,0v77.09H2.09v4.9h351.32v-4.9h-75.11V0h-4.9ZM2.09,647.15v4.9h75.11v77.09h4.9v-77.09h271.31v-4.9H2.09Z"/><rect id="k" class="y" x="6.91" y="4.65" width="341.69" height="719.83" rx="56.08" ry="56.08"/><rect id="l" class="w" x="11.6" y="8.23" width="332.31" height="712.68" rx="53.57" ry="53.57"/><rect id="m" class="ab" x="15.32" y="13.95" width="324.87" height="701.23" rx="46.84" ry="46.84"/><g id="n"><path id="o" class="w" d="M141.66,22.2h72.18c8.45,0,15.31,6.85,15.31,15.31h0c0,8.45-6.85,15.31-15.31,15.31h-72.18c-8.45,0-15.31-6.85-15.31-15.31h0c0-8.45,6.85-15.31,15.31-15.31Z"/><g id="p"><circle id="q" class="af" cx="213.44" cy="37.51" r="8.46"/><circle id="r" class="z" cx="213.44" cy="37.51" r="5.22"/><circle id="s" class="v" cx="213.44" cy="37.51" r="3.98"/><path id="t" class="ad" d="M210.7,34.85c-.47.05-1.14.77-1.19,2.18-.05,1.41.57,2.18.92,2.18s1.79-2.06.27-4.37h0Z"/><path id="u" class="ad" d="M214.09,34.36c-.74.23-.89,1.43-.86,2.12.03.69,1,2.49,2.17,2.09s1.37-1.89.89-2.89c-.49-1-1.37-1.72-2.2-1.32Z"/></g></g></g></svg>