<?xml version="1.0" encoding="UTF-8"?><svg id="a" xmlns="http://www.w3.org/2000/svg" viewBox="0 0 10.92 4"><defs><style>.b{fill:#b524ea;stroke-width:0px;}</style></defs><path class="b" d="M4.34,2.88c-.06,0-.09-.03-.09-.1v-1.57c0-.07.03-.1.09-.1.03,0,.05,0,.06.02.02.01.03.03.04.05l.63,1.2.63-1.2s.03-.04.04-.05c.01-.01.04-.02.06-.02.06,0,.09.03.09.1v1.57c0,.07-.03.1-.09.1s-.09-.03-.09-.1v-1.27l-.55,1.04s-.02.04-.04.05c-.01,0-.03.01-.05.01s-.04,0-.05-.01c-.01,0-.02-.02-.03-.04l-.56-1.04v1.27c0,.07-.03.1-.09.1h0Z"/><path class="b" d="M6.68,2.88c-.08,0-.15-.02-.22-.05-.06-.03-.12-.08-.15-.13-.04-.06-.06-.12-.06-.19,0-.09.02-.16.07-.21.04-.05.12-.09.22-.11.1-.02.25-.03.43-.03h.08v-.08c0-.1-.02-.17-.06-.22-.04-.04-.11-.07-.2-.07-.06,0-.11,0-.17.02-.06.01-.12.04-.18.07-.03.01-.05.02-.07,0-.02,0-.03-.02-.04-.04,0-.02,0-.04,0-.06s.02-.04.05-.05c.07-.04.14-.06.21-.08.07-.02.14-.02.2-.02.15,0,.27.04.34.11.07.08.11.19.11.35v.66c0,.07-.03.1-.09.1-.06,0-.1-.03-.1-.1v-.12c-.03.07-.08.13-.14.17-.06.04-.14.06-.23.06h0ZM6.72,2.73c.1,0,.18-.03.24-.1.06-.07.09-.15.09-.26v-.07h-.08c-.13,0-.24,0-.31.02s-.13.03-.16.06-.05.07-.05.12c0,.07.02.12.07.16.05.04.11.06.19.06h0Z"/><path class="b" d="M7.71,2.88c-.07,0-.1-.03-.1-.1v-1.02c0-.07.03-.1.1-.1s.1.03.1.1v.13c.03-.08.08-.13.15-.17.07-.04.15-.06.25-.06.05,0,.08.02.08.08,0,.06-.02.09-.09.1h-.04c-.11.01-.2.05-.26.11s-.09.15-.09.25v.59c0,.07-.03.1-.1.1h0Z"/><path class="b" d="M9,2.88c-.06,0-.1-.03-.13-.1l-.42-.99s-.02-.07,0-.1c.01-.03.04-.04.09-.04s.08.03.1.08l.37.9.38-.9s.02-.05.04-.06c.01-.01.04-.02.06-.02.04,0,.06.01.08.04.01.03.01.06,0,.1l-.43.99c-.03.06-.07.1-.13.1Z"/><path class="b" d="M9.92,1.38c-.09,0-.13-.04-.13-.12s.04-.12.13-.12.13.04.13.12-.04.12-.13.12ZM9.92,2.87c-.07,0-.1-.04-.1-.11v-1c0-.07.03-.11.1-.11s.1.04.1.11v1c0,.07-.03.11-.1.11Z"/><path class="b" d="M10.75,2.88c-.12,0-.21-.04-.27-.11-.06-.07-.09-.17-.09-.31v-1.25c0-.07.03-.1.1-.1s.1.03.1.1v1.24c0,.17.07.26.21.26.01,0,.03,0,.04,0,.01,0,.02,0,.03,0,.02,0,.03,0,.04.01s.01.03.01.06c0,.06-.03.09-.08.1-.01,0-.03,0-.04,0-.01,0-.03,0-.04,0h0Z"/><path class="b" d="M1.77.16s.04,0,.05.01l1.51.87s.05.05.05.09v1.74s-.02.07-.05.09l-1.51.87s-.03.01-.05.01-.04,0-.05-.01L.21,2.96s-.05-.05-.05-.09v-1.74s.02-.07.05-.09L1.72.17s.03-.01.05-.01M1.77,0s-.09.01-.13.04L.13.9c-.08.05-.13.13-.13.23v1.74c0,.09.05.18.13.23l1.51.87s.09.04.13.04.09-.01.13-.04l1.51-.87c.08-.05.13-.13.13-.23v-1.74c0-.09-.05-.18-.13-.23L1.9.04s-.09-.04-.13-.04h0Z"/><path class="b" d="M1.02,2.88c-.06,0-.09-.03-.09-.1v-1.58c0-.07.03-.1.09-.1.03,0,.05,0,.06.02.02.01.03.03.04.05l.64,1.21.64-1.21s.03-.04.04-.05c.01-.01.04-.02.06-.02.06,0,.09.03.09.1v1.58c0,.07-.03.1-.09.1s-.09-.03-.09-.1v-1.28l-.56,1.05s-.02.04-.04.05c-.01,0-.03.01-.05.01s-.04,0-.05-.01c-.01,0-.02-.02-.03-.04l-.57-1.05v1.28c0,.07-.03.1-.09.1h0Z"/></svg>